/* XPM */
static char * bat1_xpm[] = {
"64 64 6 1",
" 	c #14182E",
".	c #3B7D4F",
"+	c #2F5753",
"@	c #283540",
"#	c #E64539",
"$	c #DFE0E8",
"                                                                ",
"                                                                ",
"                                                                ",
"                                                                ",
"                                                                ",
"                                                                ",
"                                                                ",
"                                                                ",
"                ....                        ....                ",
"                ....                        ....                ",
"                ....                        ....                ",
"                ....                        ....                ",
"            ........                            ....            ",
"            ........                            ....            ",
"            ........                            ....            ",
"            ........                            ....            ",
"        ........                                ........        ",
"        ........                                ........        ",
"        ........                                ........        ",
"        ........                                ........        ",
"        ....++++                                ........        ",
"        ....++++                                ........        ",
"        ....++++                                ........        ",
"        ....++++                                ........        ",
"    ....++++++++                                    ....++++    ",
"    ....++++++++                                    ....++++    ",
"    ....++++++++                                    ....++++    ",
"    ....++++++++                                    ....++++    ",
"    ++++++++                                        ....++++    ",
"    ++++++++                                        ....++++    ",
"    ++++++++                                        ....++++    ",
"    ++++++++                                        ....++++    ",
"    ++++++++@@@@                                ++++++++++++    ",
"    ++++++++@@@@                                ++++++++++++    ",
"    ++++++++@@@@                                ++++++++++++    ",
"    ++++++++@@@@                                ++++++++++++    ",
"    ++++++++++++@@@@        ....    ....    ++++++++++++++++    ",
"    ++++++++++++@@@@        ....    ....    ++++++++++++++++    ",
"    ++++++++++++@@@@        ....    ....    ++++++++++++++++    ",
"    ++++++++++++@@@@        ....    ....    ++++++++++++++++    ",
"        ++++++++++++++++++++####++++####++++++++++++@@@@        ",
"        ++++++++++++++++++++####++++####++++++++++++@@@@        ",
"        ++++++++++++++++++++####++++####++++++++++++@@@@        ",
"        ++++++++++++++++++++####++++####++++++++++++@@@@        ",
"        ++++++++++++++++++++            ++++++++++++@@@@        ",
"        ++++++++++++++++++++            ++++++++++++@@@@        ",
"        ++++++++++++++++++++            ++++++++++++@@@@        ",
"        ++++++++++++++++++++            ++++++++++++@@@@        ",
"            @@@@@@@@++++    $$$$    $$$$    ++++@@@@            ",
"            @@@@@@@@++++    $$$$    $$$$    ++++@@@@            ",
"            @@@@@@@@++++    $$$$    $$$$    ++++@@@@            ",
"            @@@@@@@@++++    $$$$    $$$$    ++++@@@@            ",
"        @@@@@@@@++++++++++++++++++++++++++++++++                ",
"        @@@@@@@@++++++++++++++++++++++++++++++++                ",
"        @@@@@@@@++++++++++++++++++++++++++++++++                ",
"        @@@@@@@@++++++++++++++++++++++++++++++++                ",
"                @@@@@@@@@@@@@@@@@@@@@@@@                        ",
"                @@@@@@@@@@@@@@@@@@@@@@@@                        ",
"                @@@@@@@@@@@@@@@@@@@@@@@@                        ",
"                @@@@@@@@@@@@@@@@@@@@@@@@                        ",
"                                                                ",
"                                                                ",
"                                                                ",
"                                                                "};
