/* XPM */
static char * bat3_xpm[] = {
"64 64 3 1",
" 	c None",
".	c #14182E",
"+	c #2F5753",
"................................................................",
"................................................................",
"................................................................",
"................................................................",
"................................................................",
"................................................................",
"................................................................",
"................................................................",
"................................................................",
"................................................................",
"................................................................",
"................................................................",
"................................................................",
"................................................................",
"................................................................",
"................................................................",
"................................................................",
"................................................................",
"................................................................",
"................................................................",
"....................................................++++........",
"....................................................++++........",
"....................................................++++........",
"....................................................++++........",
"........++++....++++........................++++++++++++........",
"........++++....++++........................++++++++++++........",
"........++++....++++........................++++++++++++........",
"........++++....++++........................++++++++++++........",
"........++++++++++++++++................++++....++++............",
"........++++++++++++++++................++++....++++............",
"........++++++++++++++++................++++....++++............",
"........++++++++++++++++................++++....++++............",
"........++++++++++++++++........++++++++++++++++++++++++........",
"........++++++++++++++++........++++++++++++++++++++++++........",
"........++++++++++++++++........++++++++++++++++++++++++........",
"........++++++++++++++++........++++++++++++++++++++++++........",
"........++++++++++++............++++....++++++++++++++++........",
"........++++++++++++............++++....++++++++++++++++........",
"........++++++++++++............++++....++++++++++++++++........",
"........++++++++++++............++++....++++++++++++++++........",
"........++++++++................................++++............",
"........++++++++................................++++............",
"........++++++++................................++++............",
"........++++++++................................++++............",
"................................................................",
"................................................................",
"................................................................",
"................................................................",
"................................................................",
"................................................................",
"................................................................",
"................................................................",
"................................................................",
"................................................................",
"................................................................",
"................................................................",
"................................................................",
"................................................................",
"................................................................",
"................................................................",
"................................................................",
"................................................................",
"................................................................",
"................................................................"};
