/* XPM */
static char * bat6_xpm[] = {
"64 64 7 1",
" 	c None",
".	c #14182E",
"+	c #3B7D4F",
"@	c #2F5753",
"#	c #E64539",
"$	c #283540",
"%	c #DFE0E8",
"................................................................",
"................................................................",
"................................................................",
"................................................................",
"................................................................",
"................................................................",
"................................................................",
"................................................................",
"............................++++....++++........................",
"............................++++....++++........................",
"............................++++....++++........................",
"............................++++....++++........................",
"................@@@@@@@@@@@@####@@@@####@@@@@@@@................",
"................@@@@@@@@@@@@####@@@@####@@@@@@@@................",
"................@@@@@@@@@@@@####@@@@####@@@@@@@@................",
"................@@@@@@@@@@@@####@@@@####@@@@@@@@................",
"............@@@@@@@@@@@@@@@@............@@@@@@@@$$$$............",
"............@@@@@@@@@@@@@@@@............@@@@@@@@$$$$............",
"............@@@@@@@@@@@@@@@@............@@@@@@@@$$$$............",
"............@@@@@@@@@@@@@@@@............@@@@@@@@$$$$............",
"........@@@@@@@@@@@@@@@@....%%%%....%%%%....@@@@@@@@$$$$........",
"........@@@@@@@@@@@@@@@@....%%%%....%%%%....@@@@@@@@$$$$........",
"........@@@@@@@@@@@@@@@@....%%%%....%%%%....@@@@@@@@$$$$........",
"........@@@@@@@@@@@@@@@@....%%%%....%%%%....@@@@@@@@$$$$........",
"........@@@@@@@@@@@@@@@@@@@@@@@@@@@@@@@@@@@@@@@@@@@@$$$$........",
"........@@@@@@@@@@@@@@@@@@@@@@@@@@@@@@@@@@@@@@@@@@@@$$$$........",
"........@@@@@@@@@@@@@@@@@@@@@@@@@@@@@@@@@@@@@@@@@@@@$$$$........",
"........@@@@@@@@@@@@@@@@@@@@@@@@@@@@@@@@@@@@@@@@@@@@$$$$........",
"....@@@@@@@@@@@@$$$$$$$$................@@@@@@@@@@@@@@@@$$$$....",
"....@@@@@@@@@@@@$$$$$$$$................@@@@@@@@@@@@@@@@$$$$....",
"....@@@@@@@@@@@@$$$$$$$$................@@@@@@@@@@@@@@@@$$$$....",
"....@@@@@@@@@@@@$$$$$$$$................@@@@@@@@@@@@@@@@$$$$....",
"....@@@@@@@@$$$$............................@@@@@@@@@@@@@@@@....",
"....@@@@@@@@$$$$............................@@@@@@@@@@@@@@@@....",
"....@@@@@@@@$$$$............................@@@@@@@@@@@@@@@@....",
"....@@@@@@@@$$$$............................@@@@@@@@@@@@@@@@....",
"....@@@@++++....................................@@@@@@@@++++....",
"....@@@@++++....................................@@@@@@@@++++....",
"....@@@@++++....................................@@@@@@@@++++....",
"....@@@@++++....................................@@@@@@@@++++....",
"....++++++++........................................++++++++....",
"....++++++++........................................++++++++....",
"....++++++++........................................++++++++....",
"....++++++++........................................++++++++....",
"........++++++++....................................++++........",
"........++++++++....................................++++........",
"........++++++++....................................++++........",
"........++++++++....................................++++........",
"............++++................................++++............",
"............++++................................++++............",
"............++++................................++++............",
"............++++................................++++............",
"................................................................",
"................................................................",
"................................................................",
"................................................................",
"................................................................",
"................................................................",
"................................................................",
"................................................................",
"................................................................",
"................................................................",
"................................................................",
"................................................................"};
