/* XPM */
static char * bat7_xpm[] = {
"64 64 7 1",
" 	c None",
".	c #14182E",
"+	c #2F5753",
"@	c #3B7D4F",
"#	c #E64539",
"$	c #283540",
"%	c #DFE0E8",
"................................................................",
"................................................................",
"................................................................",
"................................................................",
"................................................................",
"................................................................",
"................................................................",
"................................................................",
"................................................................",
"................................................................",
"................................................................",
"................................................................",
"................++++........@@@@....@@@@....++++................",
"................++++........@@@@....@@@@....++++................",
"................++++........@@@@....@@@@....++++................",
"................++++........@@@@....@@@@....++++................",
"............++++++++++++++++####++++####++++++++$$$$............",
"............++++++++++++++++####++++####++++++++$$$$............",
"............++++++++++++++++####++++####++++++++$$$$............",
"............++++++++++++++++####++++####++++++++$$$$............",
"........++++++++++++++++++++............++++++++++++$$$$........",
"........++++++++++++++++++++............++++++++++++$$$$........",
"........++++++++++++++++++++............++++++++++++$$$$........",
"........++++++++++++++++++++............++++++++++++$$$$........",
"........++++++++++++++++....%%%%....%%%%....++++++++$$$$........",
"........++++++++++++++++....%%%%....%%%%....++++++++$$$$........",
"........++++++++++++++++....%%%%....%%%%....++++++++$$$$........",
"........++++++++++++++++....%%%%....%%%%....++++++++$$$$........",
"....++++++++++++$$$$++++++++++++++++++++++++++++++++++++++++....",
"....++++++++++++$$$$++++++++++++++++++++++++++++++++++++++++....",
"....++++++++++++$$$$++++++++++++++++++++++++++++++++++++++++....",
"....++++++++++++$$$$++++++++++++++++++++++++++++++++++++++++....",
"....++++++++$$$$....++++........................++++++++@@@@....",
"....++++++++$$$$....++++........................++++++++@@@@....",
"....++++++++$$$$....++++........................++++++++@@@@....",
"....++++++++$$$$....++++........................++++++++@@@@....",
"....++++@@@@........................................@@@@@@@@....",
"....++++@@@@........................................@@@@@@@@....",
"....++++@@@@........................................@@@@@@@@....",
"....++++@@@@........................................@@@@@@@@....",
"........@@@@@@@@....................................@@@@........",
"........@@@@@@@@....................................@@@@........",
"........@@@@@@@@....................................@@@@........",
"........@@@@@@@@....................................@@@@........",
"............@@@@................................@@@@............",
"............@@@@................................@@@@............",
"............@@@@................................@@@@............",
"............@@@@................................@@@@............",
"................................................................",
"................................................................",
"................................................................",
"................................................................",
"................................................................",
"................................................................",
"................................................................",
"................................................................",
"................................................................",
"................................................................",
"................................................................",
"................................................................",
"................................................................",
"................................................................",
"................................................................",
"................................................................"};
