/* XPM */
static char * bat8_xpm[] = {
"64 64 3 1",
" 	c None",
".	c #14182E",
"+	c #2F5753",
"................................................................",
"................................................................",
"................................................................",
"................................................................",
"................................................................",
"................................................................",
"................................................................",
"................................................................",
"................................................................",
"................................................................",
"................................................................",
"................................................................",
"................................................................",
"................................................................",
"................................................................",
"................................................................",
"................................................................",
"................................................................",
"................................................................",
"................................................................",
"....................................................++++........",
"....................................................++++........",
"....................................................++++........",
"....................................................++++........",
"........++++....++++........................++++++++++++........",
"........++++....++++........................++++++++++++........",
"........++++....++++........................++++++++++++........",
"........++++....++++........................++++++++++++........",
"........++++++++++++++++................++++....++++............",
"........++++++++++++++++................++++....++++............",
"........++++++++++++++++................++++....++++............",
"........++++++++++++++++................++++....++++............",
"........++++++++++++++++........++++++++++++++++++++++++........",
"........++++++++++++++++........++++++++++++++++++++++++........",
"........++++++++++++++++........++++++++++++++++++++++++........",
"........++++++++++++++++........++++++++++++++++++++++++........",
"........++++++++++++............++++....++++++++++++++++........",
"........++++++++++++............++++....++++++++++++++++........",
"........++++++++++++............++++....++++++++++++++++........",
"........++++++++++++............++++....++++++++++++++++........",
"........++++++++................................++++............",
"........++++++++................................++++............",
"........++++++++................................++++............",
"........++++++++................................++++............",
"................................................................",
"................................................................",
"................................................................",
"................................................................",
"................................................................",
"................................................................",
"................................................................",
"................................................................",
"................................................................",
"................................................................",
"................................................................",
"................................................................",
"................................................................",
"................................................................",
"................................................................",
"................................................................",
"................................................................",
"................................................................",
"................................................................",
"................................................................"};
