/* XPM */
static char * coin_xpm[] = {
"64 64 4 1",
" 	c #14182E",
".	c #DFE0E8",
"+	c #686F99",
"@	c #A3A7C2",
"                                                                ",
"                                                                ",
"                                                                ",
"                                                                ",
"                                                                ",
"                                                                ",
"                                                                ",
"                                                                ",
"                                                                ",
"                                                                ",
"                                                                ",
"                                                                ",
"                                                                ",
"                                                                ",
"                                                                ",
"                                                                ",
"                                                                ",
"                                                                ",
"                                                                ",
"                                                                ",
"                            ........                            ",
"                            ........                            ",
"                            ........                            ",
"                            ........                            ",
"                        ....++++++++@@@@                        ",
"                        ....++++++++@@@@                        ",
"                        ....++++++++@@@@                        ",
"                        ....++++++++@@@@                        ",
"                        ....++++@@@@@@@@                        ",
"                        ....++++@@@@@@@@                        ",
"                        ....++++@@@@@@@@                        ",
"                        ....++++@@@@@@@@                        ",
"                        @@@@++++@@@@@@@@                        ",
"                        @@@@++++@@@@@@@@                        ",
"                        @@@@++++@@@@@@@@                        ",
"                        @@@@++++@@@@@@@@                        ",
"                        ....++++@@@@@@@@                        ",
"                        ....++++@@@@@@@@                        ",
"                        ....++++@@@@@@@@                        ",
"                        ....++++@@@@@@@@                        ",
"                            @@@@@@@@                            ",
"                            @@@@@@@@                            ",
"                            @@@@@@@@                            ",
"                            @@@@@@@@                            ",
"                                                                ",
"                                                                ",
"                                                                ",
"                                                                ",
"                                                                ",
"                                                                ",
"                                                                ",
"                                                                ",
"                                                                ",
"                                                                ",
"                                                                ",
"                                                                ",
"                                                                ",
"                                                                ",
"                                                                ",
"                                                                ",
"                                                                ",
"                                                                ",
"                                                                ",
"                                                                "};
