/* XPM */
static char * door4_xpm[] = {
"64 64 7 1",
" 	c #14182E",
".	c #A3A7C2",
"+	c #686F99",
"@	c #3D2936",
"#	c #404973",
"$	c #52333F",
"%	c #8F4D57",
"                                                                ",
"                                                                ",
"                                                                ",
"                                                                ",
"                        ....    ....++++                        ",
"                        ....    ....++++                        ",
"                        ....    ....++++                        ",
"                        ....    ....++++                        ",
"                    ....++++        ++++++++                    ",
"                    ....++++        ++++++++                    ",
"                    ....++++        ++++++++                    ",
"                    ....++++        ++++++++                    ",
"            ....                                ++++            ",
"            ....                                ++++            ",
"            ....                                ++++            ",
"            ....                                ++++            ",
"        ....++++    @@@@                        ####++++        ",
"        ....++++    @@@@                        ####++++        ",
"        ....++++    @@@@                        ####++++        ",
"        ....++++    @@@@                        ####++++        ",
"        ++++    @@@@@@@@@@@@                        ####        ",
"        ++++    @@@@@@@@@@@@                        ####        ",
"        ++++    @@@@@@@@@@@@                        ####        ",
"        ++++    @@@@@@@@@@@@                        ####        ",
"            @@@@@@@@$$$$$$$$                                    ",
"            @@@@@@@@$$$$$$$$                                    ",
"            @@@@@@@@$$$$$$$$                                    ",
"            @@@@@@@@$$$$$$$$                                    ",
"    ....    @@@@@@@@$$$$$$$$@@@@                        ++++    ",
"    ....    @@@@@@@@$$$$$$$$@@@@                        ++++    ",
"    ....    @@@@@@@@$$$$$$$$@@@@                        ++++    ",
"    ....    @@@@@@@@$$$$$$$$@@@@                        ++++    ",
"    ++++    @@@@$$$$$$$$$$$$@@@@                        ++++    ",
"    ++++    @@@@$$$$$$$$$$$$@@@@                        ++++    ",
"    ++++    @@@@$$$$$$$$$$$$@@@@                        ++++    ",
"    ++++    @@@@$$$$$$$$$$$$@@@@                        ++++    ",
"    ++++    @@@@%%%%$$$$++++@@@@                        ####    ",
"    ++++    @@@@%%%%$$$$++++@@@@                        ####    ",
"    ++++    @@@@%%%%$$$$++++@@@@                        ####    ",
"    ++++    @@@@%%%%$$$$++++@@@@                        ####    ",
"    ####    @@@@%%%%$$$$@@@@####                                ",
"    ####    @@@@%%%%$$$$@@@@####                                ",
"    ####    @@@@%%%%$$$$@@@@####                                ",
"    ####    @@@@%%%%$$$$@@@@####                                ",
"            @@@@%%%%$$$$####@@@@                        ++++    ",
"            @@@@%%%%$$$$####@@@@                        ++++    ",
"            @@@@%%%%$$$$####@@@@                        ++++    ",
"            @@@@%%%%$$$$####@@@@                        ++++    ",
"    ++++    @@@@%%%%$$$$$$$$@@@@                        ++++    ",
"    ++++    @@@@%%%%$$$$$$$$@@@@                        ++++    ",
"    ++++    @@@@%%%%$$$$$$$$@@@@                        ++++    ",
"    ++++    @@@@%%%%$$$$$$$$@@@@                        ++++    ",
"    ++++    @@@@%%%%@@@@@@@@@@@@                        ++++    ",
"    ++++    @@@@%%%%@@@@@@@@@@@@                        ++++    ",
"    ++++    @@@@%%%%@@@@@@@@@@@@                        ++++    ",
"    ++++    @@@@%%%%@@@@@@@@@@@@                        ++++    ",
"    ####    @@@@$$$$@@@@@@@@                            ####    ",
"    ####    @@@@$$$$@@@@@@@@                            ####    ",
"    ####    @@@@$$$$@@@@@@@@                            ####    ",
"    ####    @@@@$$$$@@@@@@@@                            ####    ",
"                                                                ",
"                                                                ",
"                                                                ",
"                                                                "};
