/* XPM */
static char * door6_xpm[] = {
"64 64 5 1",
" 	c #14182E",
".	c #A3A7C2",
"+	c #686F99",
"@	c #404973",
"#	c #3D2936",
"                                                                ",
"                                                                ",
"                                                                ",
"                                                                ",
"                        ....    ....++++                        ",
"                        ....    ....++++                        ",
"                        ....    ....++++                        ",
"                        ....    ....++++                        ",
"                    ....++++        ++++++++                    ",
"                    ....++++        ++++++++                    ",
"                    ....++++        ++++++++                    ",
"                    ....++++        ++++++++                    ",
"            ....                                ++++            ",
"            ....                                ++++            ",
"            ....                                ++++            ",
"            ....                                ++++            ",
"        ....++++                                @@@@++++        ",
"        ....++++                                @@@@++++        ",
"        ....++++                                @@@@++++        ",
"        ....++++                                @@@@++++        ",
"        ++++    ####                                @@@@        ",
"        ++++    ####                                @@@@        ",
"        ++++    ####                                @@@@        ",
"        ++++    ####                                @@@@        ",
"            ########                                            ",
"            ########                                            ",
"            ########                                            ",
"            ########                                            ",
"    ....    ############                                ++++    ",
"    ....    ############                                ++++    ",
"    ....    ############                                ++++    ",
"    ....    ############                                ++++    ",
"    ++++    ############                                ++++    ",
"    ++++    ############                                ++++    ",
"    ++++    ############                                ++++    ",
"    ++++    ############                                ++++    ",
"    ++++    ############                                @@@@    ",
"    ++++    ############                                @@@@    ",
"    ++++    ############                                @@@@    ",
"    ++++    ############                                @@@@    ",
"    @@@@    ########@@@@                                        ",
"    @@@@    ########@@@@                                        ",
"    @@@@    ########@@@@                                        ",
"    @@@@    ########@@@@                                        ",
"            ############                                ++++    ",
"            ############                                ++++    ",
"            ############                                ++++    ",
"            ############                                ++++    ",
"    ++++    ############                                ++++    ",
"    ++++    ############                                ++++    ",
"    ++++    ############                                ++++    ",
"    ++++    ############                                ++++    ",
"    ++++    ############                                ++++    ",
"    ++++    ############                                ++++    ",
"    ++++    ############                                ++++    ",
"    ++++    ############                                ++++    ",
"    @@@@    ########                                    @@@@    ",
"    @@@@    ########                                    @@@@    ",
"    @@@@    ########                                    @@@@    ",
"    @@@@    ########                                    @@@@    ",
"                                                                ",
"                                                                ",
"                                                                ",
"                                                                "};
