/* XPM */
static char * gob_6_xpm[] = {
"64 64 9 1",
" 	c #14182E",
".	c #63AB3F",
"+	c #2F5753",
"@	c #3B7D4F",
"#	c #283540",
"$	c #FFEE83",
"%	c #F0B541",
"&	c #8F4D57",
"*	c #52333F",
"                                                                ",
"                                                                ",
"                                                                ",
"                                                                ",
"                                                                ",
"                                                                ",
"                                                                ",
"                                                                ",
"                                                                ",
"                                                                ",
"                                                                ",
"                                                                ",
"                ....                                ++++        ",
"                ....                                ++++        ",
"                ....                                ++++        ",
"                ....                                ++++        ",
"            ....++++@@@@                    ++++++++####        ",
"            ....++++@@@@                    ++++++++####        ",
"            ....++++@@@@                    ++++++++####        ",
"            ....++++@@@@                    ++++++++####        ",
"        ++++++++++++++++@@@@@@@@@@@@@@@@@@@@++++####            ",
"        ++++++++++++++++@@@@@@@@@@@@@@@@@@@@++++####            ",
"        ++++++++++++++++@@@@@@@@@@@@@@@@@@@@++++####            ",
"        ++++++++++++++++@@@@@@@@@@@@@@@@@@@@++++####            ",
"            $$$$++++++++@@@@@@@@++++++++++++########            ",
"            $$$$++++++++@@@@@@@@++++++++++++########            ",
"            $$$$++++++++@@@@@@@@++++++++++++########            ",
"            $$$$++++++++@@@@@@@@++++++++++++########            ",
"            %%%%    ++++@@@@@@@@$$$$$$$$@@@@++++%%%%            ",
"            %%%%    ++++@@@@@@@@$$$$$$$$@@@@++++%%%%            ",
"            %%%%    ++++@@@@@@@@$$$$$$$$@@@@++++%%%%            ",
"            %%%%    ++++@@@@@@@@$$$$$$$$@@@@++++%%%%            ",
"                            @@@@@@@@@@@@++++++++                ",
"                            @@@@@@@@@@@@++++++++                ",
"                            @@@@@@@@@@@@++++++++                ",
"                            @@@@@@@@@@@@++++++++                ",
"                        ####++++++++++++++++                    ",
"                        ####++++++++++++++++                    ",
"                        ####++++++++++++++++                    ",
"                        ####++++++++++++++++                    ",
"                    ####++++++++@@@@++++++++####                ",
"                    ####++++++++@@@@++++++++####                ",
"                    ####++++++++@@@@++++++++####                ",
"                    ####++++++++@@@@++++++++####                ",
"                ####@@@@++++####@@@@@@@@++++########            ",
"                ####@@@@++++####@@@@@@@@++++########            ",
"                ####@@@@++++####@@@@@@@@++++########            ",
"                ####@@@@++++####@@@@@@@@++++########            ",
"                ++++@@@@    ####@@@@@@@@++++++++########        ",
"                ++++@@@@    ####@@@@@@@@++++++++########        ",
"                ++++@@@@    ####@@@@@@@@++++++++########        ",
"                ++++@@@@    ####@@@@@@@@++++++++########        ",
"                ++++++++    &&&&&&&&&&&&********########        ",
"                ++++++++    &&&&&&&&&&&&********########        ",
"                ++++++++    &&&&&&&&&&&&********########        ",
"                ++++++++    &&&&&&&&&&&&********########        ",
"                ++++++++    &&&&&&&&************########        ",
"                ++++++++    &&&&&&&&************########        ",
"                ++++++++    &&&&&&&&************########        ",
"                ++++++++    &&&&&&&&************########        ",
"                            @@@@            ++++                ",
"                            @@@@            ++++                ",
"                            @@@@            ++++                ",
"                            @@@@            ++++                "};
