/* XPM */
static char * wall_xpm[] = {
"64 64 4 1",
" 	c #14182E",
".	c #686F99",
"+	c #404973",
"@	c #2C354D",
"                                                                ",
"                                                                ",
"                                                                ",
"                                                                ",
"    ................++++....++++++++++++        ....++++++++    ",
"    ................++++....++++++++++++        ....++++++++    ",
"    ................++++....++++++++++++        ....++++++++    ",
"    ................++++....++++++++++++        ....++++++++    ",
"    ....++++++++++++++++++++++++++++@@@@    ....++++++++@@@@    ",
"    ....++++++++++++++++++++++++++++@@@@    ....++++++++@@@@    ",
"    ....++++++++++++++++++++++++++++@@@@    ....++++++++@@@@    ",
"    ....++++++++++++++++++++++++++++@@@@    ....++++++++@@@@    ",
"    ++++++++++++@@@@++++@@@@++++++++@@@@    ++++++++++++@@@@    ",
"    ++++++++++++@@@@++++@@@@++++++++@@@@    ++++++++++++@@@@    ",
"    ++++++++++++@@@@++++@@@@++++++++@@@@    ++++++++++++@@@@    ",
"    ++++++++++++@@@@++++@@@@++++++++@@@@    ++++++++++++@@@@    ",
"    @@@@@@@@@@@@@@@@@@@@@@@@@@@@@@@@        @@@@@@@@@@@@@@@@    ",
"    @@@@@@@@@@@@@@@@@@@@@@@@@@@@@@@@        @@@@@@@@@@@@@@@@    ",
"    @@@@@@@@@@@@@@@@@@@@@@@@@@@@@@@@        @@@@@@@@@@@@@@@@    ",
"    @@@@@@@@@@@@@@@@@@@@@@@@@@@@@@@@        @@@@@@@@@@@@@@@@    ",
"                                                                ",
"                                                                ",
"                                                                ",
"                                                                ",
"    ........        ........++++........++++....++++++++++++    ",
"    ........        ........++++........++++....++++++++++++    ",
"    ........        ........++++........++++....++++++++++++    ",
"    ........        ........++++........++++....++++++++++++    ",
"    ....++++@@@@    ....++++++++++++++++++++++++++++++++@@@@    ",
"    ....++++@@@@    ....++++++++++++++++++++++++++++++++@@@@    ",
"    ....++++@@@@    ....++++++++++++++++++++++++++++++++@@@@    ",
"    ....++++@@@@    ....++++++++++++++++++++++++++++++++@@@@    ",
"    ++++++++@@@@    ++++++++++++@@@@++++++++@@@@++++@@@@@@@@    ",
"    ++++++++@@@@    ++++++++++++@@@@++++++++@@@@++++@@@@@@@@    ",
"    ++++++++@@@@    ++++++++++++@@@@++++++++@@@@++++@@@@@@@@    ",
"    ++++++++@@@@    ++++++++++++@@@@++++++++@@@@++++@@@@@@@@    ",
"    @@@@@@@@@@@@        @@@@@@@@@@@@@@@@@@@@@@@@@@@@@@@@@@@@    ",
"    @@@@@@@@@@@@        @@@@@@@@@@@@@@@@@@@@@@@@@@@@@@@@@@@@    ",
"    @@@@@@@@@@@@        @@@@@@@@@@@@@@@@@@@@@@@@@@@@@@@@@@@@    ",
"    @@@@@@@@@@@@        @@@@@@@@@@@@@@@@@@@@@@@@@@@@@@@@@@@@    ",
"                                                                ",
"                                                                ",
"                                                                ",
"                                                                ",
"    ....................++++....++++++++        ........++++    ",
"    ....................++++....++++++++        ........++++    ",
"    ....................++++....++++++++        ........++++    ",
"    ....................++++....++++++++        ........++++    ",
"    ....++++++++++++++++++++++++++++++++@@@@    ....++++@@@@    ",
"    ....++++++++++++++++++++++++++++++++@@@@    ....++++@@@@    ",
"    ....++++++++++++++++++++++++++++++++@@@@    ....++++@@@@    ",
"    ....++++++++++++++++++++++++++++++++@@@@    ....++++@@@@    ",
"    ++++++++@@@@++++++++++++@@@@++++++++@@@@    ++++++++@@@@    ",
"    ++++++++@@@@++++++++++++@@@@++++++++@@@@    ++++++++@@@@    ",
"    ++++++++@@@@++++++++++++@@@@++++++++@@@@    ++++++++@@@@    ",
"    ++++++++@@@@++++++++++++@@@@++++++++@@@@    ++++++++@@@@    ",
"    @@@@@@@@@@@@@@@@@@@@@@@@@@@@@@@@@@@@@@@@        @@@@@@@@    ",
"    @@@@@@@@@@@@@@@@@@@@@@@@@@@@@@@@@@@@@@@@        @@@@@@@@    ",
"    @@@@@@@@@@@@@@@@@@@@@@@@@@@@@@@@@@@@@@@@        @@@@@@@@    ",
"    @@@@@@@@@@@@@@@@@@@@@@@@@@@@@@@@@@@@@@@@        @@@@@@@@    ",
"                                                                ",
"                                                                ",
"                                                                ",
"                                                                "};
